<?xml version="1.0" encoding="utf-8"?>
<!-- Generator: Adobe Illustrator 19.2.1, SVG Export Plug-In . SVG Version: 6.00 Build 0)  -->
<svg version="1.1" id="Capa_1" xmlns="http://www.w3.org/2000/svg" xmlns:xlink="http://www.w3.org/1999/xlink" x="0px" y="0px"
	 viewBox="0 0 134 135.2" style="enable-background:new 0 0 134 135.2;" xml:space="preserve">
<path d="M71.1,92.2L57.6,78.7c-0.6-0.6-1.4-0.9-2.3-0.9H53c3.7-4.8,6-10.8,6-17.3c0-15.6-12.6-28.2-28.2-28.2S2.6,44.8,2.6,60.4
	s12.6,28.2,28.2,28.2c6.5,0,12.6-2.2,17.3-6v2.2c0,0.9,0.3,1.7,0.9,2.3l13.5,13.5c1.3,1.3,3.3,1.3,4.6,0l3.8-3.8
	C72.3,95.5,72.3,93.5,71.1,92.2z M30.8,77.8c-9.6,0-17.3-7.8-17.3-17.3s7.8-17.3,17.3-17.3s17.3,7.8,17.3,17.3
	C48.2,70,40.4,77.8,30.8,77.8z"/>
</svg>
